<svg xmlns="http://www.w3.org/2000/svg" width="30.001" height="30.001" viewBox="0 0 30.001 30.001"><defs><style>.a{fill:#00adb5;}.b{fill:#393e46;}</style></defs><g transform="translate(-8 -8)"><g transform="translate(8.484 8.484)"><circle class="a" cx="15" cy="15" r="15" transform="translate(-0.484 -0.484)"/><path class="b" d="M208.538,178.645V168l8.826,5.323Z" transform="translate(-196.892 -158.806)"/></g><g transform="translate(8 8)"><g transform="translate(0 0)"><path d="M33.607,12.394a15,15,0,1,0,0,21.214,15,15,0,0,0,0-21.214Zm-.684,20.529a14.033,14.033,0,1,1,0-19.845A14.033,14.033,0,0,1,32.923,32.923Z" transform="translate(-8 -8)"/><path d="M40.71,261.107a.483.483,0,0,1-.179-.034A13.553,13.553,0,0,1,32,248.484a.484.484,0,1,1,.968,0,12.586,12.586,0,0,0,7.922,11.69.484.484,0,0,1-.18.933Z" transform="translate(-30.548 -233.484)"/><path d="M193.45,457.855a.488.488,0,0,1-.09-.008c-.336-.063-.674-.14-1-.228a.484.484,0,1,1,.25-.935c.306.082.62.153.932.212a.484.484,0,0,1-.089.96Z" transform="translate(-180.869 -429.53)"/></g><path d="M201.022,171.613a.484.484,0,0,1-.484-.484V160.484a.484.484,0,0,1,.734-.414l8.826,5.323a.484.484,0,0,1,0,.829l-8.826,5.323A.484.484,0,0,1,201.022,171.613Zm.484-10.272v8.932l7.405-4.466Z" transform="translate(-188.892 -150.806)"/></g></g></svg>